# xmcd
#
# Track frame offsets: 
#        150
#        26005
#        47806
#        68688
#        91659
#        133389
#        153324
#        175819
#        193673
#        220465
#        232785
#
# Disc length: 3686 seconds
#
# Revision: 0
# Processed by: cddbd v1.5.2PL0 Copyright (c) Steve Scherf et al.
# Submitted via: ExactAudioCopy v1.0b3
#
DISCID=920e640b
DTITLE=Matt Schofield - Far As I Can See
DYEAR=2014
DGENRE=Blues
TTITLE0=From Far Away
TTITLE1=Clean Break
TTITLE2=Getaway
TTITLE3=Breaking Up Somebodies Home
TTITLE4=The Day You Left
TTITLE5=Oakville Shuffle
TTITLE6=Hindsight
TTITLE7=Everything
TTITLE8=Yellow Moon
TTITLE9=Tell Me Some Lies
TTITLE10=Red Dragon
EXTD=
EXTT0=
EXTT1=
EXTT2=
EXTT3=
EXTT4=
EXTT5=
EXTT6=
EXTT7=
EXTT8=
EXTT9=
EXTT10=
PLAYORDER=
